<?xml version="1.0" encoding="UTF-8" standalone="no"?>
<svg
   xmlns:dc="http://purl.org/dc/elements/1.1/"
   xmlns:cc="http://creativecommons.org/ns#"
   xmlns:rdf="http://www.w3.org/1999/02/22-rdf-syntax-ns#"
   xmlns:svg="http://www.w3.org/2000/svg"
   xmlns="http://www.w3.org/2000/svg"
   width="27in"
   height="9in"
   viewBox="0 0 432 144"
   version="1.1"
   id="svg8">
  <defs
     id="defs2">
    <clipPath
       clipPathUnits="userSpaceOnUse"
       id="clipPath941">
      <g
         style="stroke-width:0.629921;stroke-miterlimit:4;stroke-dasharray:none"
         id="use943">
        <path
           style="fill:#ffff00;fill-opacity:1;stroke:#ff00ff;stroke-width:0.629921;stroke-miterlimit:4;stroke-dasharray:none"
           d="m 790.32428,262.92904 -22.18061,-0.31871 -8.33397,-0.26644 -8.33398,-0.26646 -0.28676,-0.70871 -0.28676,-0.70871 -0.1763,-6.37644 -0.1763,-6.37642 v -0.41648 -0.41646 h -1.30327 -1.30327 l -0.0573,1.18608 -0.0573,1.18605 0.08,3.00352 0.08,3.00353 -0.53571,3.03459 -0.5357,3.03462 -0.4646,0.32734 -0.46458,0.32739 -6.73355,-0.20627 -6.73356,-0.20628 -11.0778,-0.2432 -11.0778,-0.2432 -16.07367,-0.41136 -16.07367,-0.41137 -11.0778,-0.21684 -11.0778,-0.21682 -4.4486,-0.27869 -4.44863,-0.27868 -0.5146,-0.6156 -0.51459,-0.61559 0.75846,-2.09406 0.75848,-2.09407 0.10734,-2.10584 0.10734,-2.10583 0.31636,-0.50821 0.31637,-0.5082 0.4395,-3.35145 0.43952,-3.35145 -0.023,-1.00278 -0.023,-1.00279 0.4771,-0.88508 0.4771,-0.88505 -0.55993,-0.34358 -0.55996,-0.34358 0.56829,-0.6798 0.56829,-0.67982 h -0.42473 -0.4248 l -0.27205,-2.69559 -0.27204,-2.6956 -1.31126,-5.14928 -1.31123,-5.1493 v -1.61815 -1.61817 l -0.49056,-0.30099 -0.49057,-0.30101 -1.48568,-3.06699 -1.48569,-3.06697 -1.08132,-1.50953 -1.08135,-1.50954 -2.04687,-2.34848 -2.0469,-2.34847 -0.89203,-0.88624 -0.89203,-0.88624 -2.03901,-1.71707 -2.03902,-1.71704 -2.49924,-1.63887 -2.49926,-1.63892 -1.08606,-0.25531 -1.08605,-0.25532 -4.26028,-2.81449 -4.26027,-2.81449 -3.43395,-3.38186 -3.43394,-3.38183 -2.35711,-3.99384 -2.35714,-3.99385 -1.35226,-3.37513 -1.35228,-3.37511 v -1.19446 -1.19442 l 0.76025,-0.66842 0.76023,-0.66842 17.95457,-0.0697 17.95457,-0.0697 0.61703,0.50841 0.61703,0.5084 v 1.82782 1.82782 l 0.27625,2.00103 0.27627,2.00101 h 0.53266 0.53268 l 0.28918,-3.16824 0.28919,-3.16828 -0.27345,-0.70739 -0.27342,-0.7074 1.02163,-0.37734 1.02162,-0.37735 14.55377,-0.271 14.55379,-0.27101 2.65851,-0.27586 2.65853,-0.27589 0.81626,0.84431 0.81627,0.8443 0.96518,1.1414 0.96518,1.14146 1.07158,1.68524 1.07159,1.68529 1.87304,1.49271 1.87306,1.49266 2.15799,1.44662 2.15799,1.44666 2.98395,1.20554 2.98396,1.20561 4.41537,0.7006 4.41536,0.7006 3.25818,-0.24733 3.25817,-0.24733 1.04539,-0.30254 1.04539,-0.3025 -0.31078,0.49926 -0.31079,0.49924 h 0.70292 0.70291 l -0.24684,-0.39656 -0.24687,-0.39655 1.49831,-0.49091 1.49831,-0.49092 0.78642,0.13266 0.78641,0.13265 -0.11945,-0.57117 -0.11944,-0.57118 0.43241,0.26533 0.43244,0.26533 1.41868,-0.72834 1.41868,-0.72834 0.87479,-0.0969 0.87481,-0.0968 0.43443,-0.0617 0.43441,-0.0617 -0.65163,-0.41811 -0.65164,-0.41807 0.43443,-0.0387 0.43443,-0.0387 1.07677,-0.19601 1.07677,-0.19602 0.4437,-0.48224 0.44371,-0.48222 -0.65163,0.34219 -0.65164,0.3422 0.48625,-0.52446 0.48626,-0.52447 0.81701,-0.15281 0.81702,-0.15282 0.33657,-0.033 0.33658,-0.033 0.41292,-1.07824 0.41292,-1.07822 h 0.44516 0.44519 v -0.45675 -0.45676 l -0.50155,0.30774 -0.50154,0.30775 0.30997,-0.49794 0.30998,-0.49793 h 0.61235 0.61237 l -0.28789,-0.75477 -0.28787,-0.75477 0.76696,0.75477 0.76696,0.75477 h 0.35693 0.35692 l 0.33476,-0.75477 0.33479,-0.75477 0.0441,-0.21565 0.0441,-0.21564 0.3448,-0.53914 0.34481,-0.53911 -0.22474,-0.36099 -0.22472,-0.36101 0.66623,-0.94434 0.66623,-0.94434 0.72753,0.11921 0.72753,0.11921 -0.11945,-0.57117 -0.11945,-0.57118 0.44601,0.27365 0.44601,0.27366 0.46414,-1.212 0.46415,-1.21202 -0.0696,-0.17686 -0.0694,-0.17686 0.74268,-0.41265 0.74267,-0.41263 -0.53302,-0.32706 -0.53305,-0.32706 0.29298,-0.91644 0.29298,-0.91643 h 0.36448 0.36447 l -0.24069,0.97041 -0.24068,0.97042 0.2357,-0.21565 0.23571,-0.21565 0.68185,-1.63333 0.68185,-1.63334 -0.38241,0.23464 -0.38238,0.23462 0.48843,-1.28465 0.48841,-1.28464 0.32046,0.51479 0.32048,0.51478 0.31749,-0.8505 0.3175,-0.85051 0.25986,-0.21563 0.25987,-0.21566 0.97302,-3.01905 0.97302,-3.01907 -0.0622,-2.58777 -0.0622,-2.58778 -0.48732,-0.31686 -0.48732,-0.31687 0.56866,-0.006 0.56868,-0.006 -0.24485,-0.39333 -0.24485,-0.39331 -0.21563,-2.51567 -0.2156,-2.51567 -0.61511,-1.94309 -0.61512,-1.94306 -0.29277,-1.72192 -0.29278,-1.72188 -0.27972,-0.43458 -0.27972,-0.43459 -0.0609,-0.32347 -0.061,-0.32347 -0.0681,-0.75477 -0.0681,-0.75476 -0.63782,0.83721 -0.63782,0.83719 -0.0404,-0.19032 -0.0404,-0.19031 -0.13936,-1.90621 -0.13935,-1.90619 0.4301,0.61231 0.43007,0.61232 -0.18676,-0.64695 -0.18677,-0.64694 -0.69248,0.12165 -0.69248,0.12164 -0.52089,-0.96627 -0.5209,-0.9663 -0.91367,-0.75828 -0.91366,-0.75827 0.65163,-0.0183 0.65164,-0.0183 -2.24994,-1.28112 -2.24991,-1.28109 -0.57383,-0.80109 -0.57383,-0.80108 -1.18323,-0.60936 -1.1832,-0.60936 -5.11592,-2.64493 -5.11592,-2.64492 -3.69261,-1.12353 -3.69261,-1.1235 -3.04095,-0.85139 -3.04097,-0.85136 -3.88803,-1.13501 -3.88804,-1.13502 -3.71438,-1.60372 -3.71436,-1.60372 -6.29915,-4.11294 -6.29915,-4.11293 -1.30327,-1.27561 -1.30327,-1.27558 -1.05636,-1.91696 -1.05639,-1.91695 -0.89852,-1.29389 -0.89854,-1.29388 -0.38148,-0.27524 -0.38145,-0.27526 0.3425,-0.58735 0.34252,-0.58732 -0.35165,0.31591 -0.35166,0.31591 -1.50625,-3.55062 -1.50623,-3.55063 -0.46996,-1.60376 -0.46996,-1.60377 0.21511,-0.21359 0.21514,-0.21356 11.70901,-0.46997 11.70901,-0.46995 6.66199,-0.0848 6.66199,-0.0848 0.60806,1.72519 0.60806,1.72518 0.006,2.04863 0.006,2.04866 0.32581,0.0491 0.32582,0.0491 1.2058,0.14142 1.20583,0.14142 -0.063,-3.67574 -0.063,-3.67573 0.38191,-0.37918 0.38195,-0.37918 8.46705,-0.42589 8.46705,-0.42587 9.83729,-0.28974 9.83727,-0.28972 0.31857,1.45298 0.31857,1.45297 0.59614,0.85074 0.59658,0.85128 v 0.98227 0.98227 l 0.32582,4.3e-4 0.32582,4.3e-4 0.12601,1.8176 0.12602,1.81758 0.51306,0.31481 0.51305,0.3148 -0.29591,0.29377 -0.29589,0.29378 0.60096,1.1314 0.60096,1.13136 1.63697,1.50954 1.63695,1.50952 0.34086,-0.10438 0.34084,-0.10437 0.96099,1.29044 0.96097,1.29045 0.67855,0.0142 0.67854,0.0142 0.84329,0.63321 0.84326,0.63322 h 1.24587 1.24588 l -0.26808,0.43066 -0.26808,0.43065 0.78547,-0.0957 0.78547,-0.0957 2.60654,0.31695 2.60654,0.31694 2.17213,-0.35309 2.17281,-0.35306 -0.11945,-0.54681 -0.11945,-0.54683 0.87588,0.27599 0.87586,0.27599 0.54692,-0.33884 0.54692,-0.33882 0.8461,-0.13061 0.84612,-0.13062 0.70962,-0.63758 0.70964,-0.63758 0.29055,0.28847 0.29058,0.28846 v -0.50316 -0.5032 h 0.7991 0.79912 l 0.49485,-1.07824 0.49484,-1.07822 h 0.46938 0.46936 l -0.31753,0.53911 -0.31752,0.53911 0.94352,-0.82161 L 784,80.89377 V 80.44687 80 l -0.63783,0.8372 -0.63782,0.83733 -0.0144,-0.26276 -0.0144,-0.26277 1.49233,-1.87229 1.49234,-1.87228 -0.25618,-0.41154 -0.2562,-0.41151 0.45604,0.2798 0.45602,0.2798 0.26273,-0.67974 0.26273,-0.67973 v -0.20578 -0.20585 l -0.43443,0.26657 -0.43441,0.26653 0.0144,-0.56457 0.0144,-0.56455 0.57711,-0.75478 0.5771,-0.75476 h 0.26428 0.26431 l -0.25006,0.64694 -0.25007,0.64693 0.37231,-0.004 0.3723,-0.004 0.99043,-1.72187 0.99042,-1.72183 h -0.66461 -0.6646 l 0.006,-0.32347 0.006,-0.32347 0.36775,-0.57597 0.36773,-0.57596 0.38585,-0.0708 0.38585,-0.0708 -0.12376,-0.36887 -0.12376,-0.36887 0.55827,-0.67215 0.55827,-0.67215 -0.97125,0.51379 -0.97126,0.51378 0.40049,-1.04578 0.40048,-1.04577 -0.0809,-0.1573 -0.0809,-0.1573 0.5006,0.56914 0.50062,0.56913 0.29382,-1.72652 0.2938,-1.72648 0.2124,-1.64089 0.21243,-1.64087 0.23678,-3.40734 0.23681,-3.40734 -0.70061,0.26691 -0.7006,0.2669 v -0.63339 -0.63341 h 0.48762 0.48761 l -0.48385,-0.57881 -0.48383,-0.5788 0.20764,-0.20615 0.20764,-0.20614 -1.33874,-6.00795 -1.33875,-6.00795 -0.12253,-0.86258 -0.12253,-0.8626 -0.70239,-1.29389 -0.70239,-1.29388 -0.002,0.56458 -0.002,0.56456 -0.43443,-0.26654 -0.43441,-0.26656 v -0.86409 -0.86258 l -0.42947,0.2635 -0.42944,0.2635 0.24185,-0.62573 0.24186,-0.62571 -0.46405,-0.28473 -0.46402,-0.28472 v -1.46479 -1.46472 l -1.34302,-2.79187 -1.34327,-2.79188 -0.82884,-0.74469 -0.82884,-0.74469 v 0.28718 0.28721 l 0.93813,2.04395 0.93813,2.04395 1.07347,1.16058 1.07348,1.16059 -0.66615,0.66133 -0.66612,0.66134 -0.32617,-0.74368 -0.32618,-0.74369 0.088,-0.71901 0.0881,-0.71902 -0.89006,-0.28046 -0.89004,-0.28047 v -0.74821 -0.74728 l -0.46454,-0.46117 -0.46452,-0.46119 -0.0922,-0.62325 -0.0922,-0.62324 -0.90614,-1.14368 -0.90615,-1.14367 -0.31108,0.30884 -0.31108,0.30884 0.12848,-0.4313 0.12848,-0.43128 -0.55263,-0.99014 -0.55265,-0.99014 0.87003,0.53942 0.87001,0.53942 0.25025,0.98983 0.25023,0.98983 h 0.42614 0.42616 v -0.41663 -0.41665 l -3.22793,-3.81953 -3.2279,-3.81954 -4.04868,-3.70522 -4.04869,-3.7052 -0.41725,-0.36105 -0.41728,-0.36102 1.47576,1.72517 1.47575,1.72518 1.06025,0.82919 1.06024,0.82921 1.09748,1.08957 1.09748,1.08957 -0.50376,0.16668 -0.50378,0.16668 0.2946,0.50229 0.29458,0.50227 -0.93327,-0.81239 -0.93328,-0.81242 0.23294,-0.37419 0.23295,-0.37419 -1.96927,-1.18552 -1.96925,-1.18553 0.18841,-0.53012 0.18841,-0.53013 -1.43578,-1.08723 -1.43577,-1.08723 h -0.30377 -0.30378 L 761.06547,4.89646 759.88975,3.81412 V 3.37213 2.93062 L 758.838,2.40579 757.78625,1.88098 757.60708,1.34185 757.42791,0.80274 h 0.60656 0.60654 l 1.20267,1.24625 1.20264,1.24626 -0.56201,0.18604 -0.56201,0.18603 1.46229,0.72423 1.46229,0.72423 h 0.27457 0.27459 l -6.55666,-6.57724 -6.55668,-6.57725 -2.66604,-3.01907 -2.66602,-3.01906 0.21117,1.07823 0.21119,1.07824 -0.5613,-0.82835 -0.56131,-0.82833 -1.33435,-1.32814 -1.33436,-1.32813 -0.25407,-0.97042 -0.25406,-0.97041 h 0.17117 0.17117 l 1.12286,1.76594 1.12287,1.76592 0.25039,-0.24859 0.25039,-0.24857 -1.15061,-1.64837 -1.15074,-1.6477 v -0.31546 -0.31546 l -0.71858,-1.0888 -0.71859,-1.0888 -0.36081,0.56487 -0.36083,0.56484 -0.006,-1.36644 -0.006,-1.36643 -0.2637,-0.68221 -0.26369,-0.68221 h -0.43443 -0.43443 l 0.28943,0.75475 0.28943,0.75477 -0.54705,-0.53911 -0.54704,-0.53913 0.49296,-0.48942 0.49297,-0.48941 -0.63308,-0.95925 -0.63309,-0.95923 0.55284,-0.43727 0.55281,-0.43727 8.90569,-0.48833 8.90566,-0.48834 7.60242,-0.4173 7.6024,-0.41729 2.60654,-0.1196 2.60654,-0.11961 0.43443,3.5396 0.43443,3.5396 0.43441,0.41671 0.43443,0.41669 1.19466,-0.23275 1.19468,-0.23274 0.004,-2.42967 0.004,-2.42967 0.27486,-1.65145 0.27484,-1.65146 0.87598,0.22741 0.87598,0.22744 7.20705,-0.40214 7.20704,-0.40214 8.03685,-0.67696 8.03682,-0.67698 3.25818,0.13102 3.25818,0.13102 0.26488,6.68507 0.2649,6.68508 0.71255,3.15508 0.71257,3.15509 v 1.2871 1.28712 l 0.66044,1.26794 0.66042,1.26795 -0.0123,0.32799 -0.0123,0.32798 1.59307,4.08189 1.59309,4.08187 0.73964,0.78821 0.73964,0.78821 1.87831,5.0497 1.87829,5.0497 1.43928,3.15078 1.43931,3.15078 v 0.42226 0.42223 l 1.9304,4.84563 1.9304,4.84563 1.13271,4.73584 1.13274,4.73585 1.74749,10.13544 1.74751,10.13542 -0.20981,7.97896 -0.20982,7.97896 -0.90365,6.68506 -0.90363,6.68507 -0.48808,2.37213 -0.48808,2.37213 -1.98606,4.93899 -1.98606,4.93901 -1.38914,1.53042 -1.38912,1.53043 -1.43381,2.80339 -1.43382,2.80341 -1.46789,2.26971 -1.46789,2.26971 -0.90125,2.04326 -0.90127,2.04324 -0.75538,1.07823 -0.75539,1.07823 -1.87531,3.45036 -1.87529,3.45037 -2.00811,3.01904 -2.0081,3.01909 -2.53746,4.52859 -2.53745,4.5286 -1.28012,2.04722 -1.28012,2.0472 -1.93935,4.42221 -1.93935,4.42221 -0.8596,2.37213 -0.85961,2.37211 -1.0436,4.22388 -1.04362,4.22385 -0.078,8.93064 -0.078,8.93064 0.008,1.07824 0.008,1.07823 0.23465,2.47401 0.23467,2.474 0.23859,0.38324 0.23857,0.38325 0.45844,4.25913 0.45844,4.25912 1.08114,6.46943 1.08114,6.46943 0.87972,4.52859 0.87972,4.52859 1.49125,5.17554 1.49125,5.17556 0.43634,1.72516 0.43634,1.72518 0.86789,1.29389 0.8679,1.29389 0.4092,0.64693 0.40921,0.64694 1.50545,3.88166 1.50545,3.88166 0.68665,4.28252 0.68665,4.2825 -0.44502,0.53235 -0.44502,0.53235 -2.66803,0.14508 -2.66803,0.14508 -22.18062,-0.31872 z m -4.53585,-230.92251 -0.88105,-1.65804 -0.0185,0.30884 -0.0185,0.30884 0.72948,1.51876 0.7295,1.51873 0.17076,-0.16953 0.17076,-0.16953 -0.88105,-1.65805 z m -56.74287,138.29716 0.78629,-0.86258 h 0.21723 0.2172 l -0.78629,0.86258 -0.78629,0.8626 h -0.21723 -0.2172 z m 13.68434,-19.12073 v -0.57507 l 0.32582,-0.31848 0.32581,-0.31849 0.53205,-1.37076 0.53206,-1.37074 -0.15886,1.34224 -0.15885,1.34226 -0.49705,0.92204 -0.49705,0.92206 h -0.20196 -0.20195 z m 2.20642,-3.98949 0.0343,-0.82665 0.22816,0.56608 0.22817,0.56607 -0.26246,0.26058 -0.26246,0.26057 0.0343,-0.82665 z m -0.46872,-10.98752 v -0.88806 l 0.41544,0.25491 0.41545,0.25492 -0.24471,0.63314 -0.24472,0.63311 h -0.17076 -0.17076 z m 43.28524,-64.02184 0.25006,-0.64694 h 0.44112 0.44115 l -0.54081,0.64694 -0.54081,0.64694 h -0.15044 -0.15044 z m -12.72809,-54.36797 -0.25963,-0.67172 -0.58895,0.22436 -0.58896,0.22438 -0.44103,-0.81818 -0.44106,-0.81816 v -0.24401 -0.244 h 0.44906 0.44906 l 1.28864,1.30876 1.28862,1.30876 v 0.2007 0.20071 h -0.44804 -0.44806 z m -3.29776,-3.40055 -0.75957,-0.5514 V 13.3558 12.84744 l 0.94584,0.87483 0.94585,0.87485 -0.18636,0.18501 -0.18636,0.18502 z m -15.71541,-14.42829 -0.83709,-0.32557 0.69672,-0.26542 0.69671,-0.26544 0.51938,0.62131 0.51938,0.62131 -0.37902,-0.0304 -0.37899,-0.0304 -0.83709,-0.32557 z m -0.86441,-1.66247 -0.32582,-0.32347 -0.50682,-0.0204 -0.50683,-0.0204 0.10344,-0.50398 0.10344,-0.50401 -0.64642,0.24627 -0.64643,0.24629 v -0.47746 -0.47743 l -0.90506,-0.89853 -0.90505,-0.89852 0.23761,-0.2359 0.23761,-0.23591 1.45535,1.24225 1.45537,1.24225 0.75284,0.97041 0.75286,0.97042 h -0.16501 -0.16502 l -0.32581,-0.32347 z m -5.34062,-4.85207 -0.2272,-0.86258 h -0.55449 -0.5545 l -0.3322,-0.75477 -0.33222,-0.75478 0.0975,-0.58239 0.0975,-0.58239 -0.53059,0.32555 -0.5306,0.32557 0.32746,-0.52603 0.32746,-0.52603 0.86596,0.77804 0.86595,0.77805 0.42456,0.78757 0.42456,0.78758 0.16193,0.83461 0.16193,0.83459 h -0.23292 -0.23295 z m -4.64331,-4.67355 -0.20093,-0.32292 0.83875,-0.0628 0.83875,-0.0628 v 0.14263 0.14263 l -0.63772,0.24295 -0.63772,0.24296 z"
           id="path960" />
      </g>
    </clipPath>
  </defs>
  <metadata
     id="metadata5">
    <rdf:RDF>
      <cc:Work
         rdf:about="">
        <dc:format>image/svg+xml</dc:format>
        <dc:type
           rdf:resource="http://purl.org/dc/dcmitype/StillImage" />
        <dc:title></dc:title>
      </cc:Work>
    </rdf:RDF>
  </metadata>
  <g
     id="layer1">
    <path
       d="m 307.625,124.6346 c 2.5,-0.41667 6.25,-0.41667 8.75,0 m -8.95833,-1.45834 c 1.45833,-0.41666 7.70833,-0.41666 9.16667,0 M 306.375,121.5096 c 0,0.83333 0.625,0.83333 1.04167,1.66666 0.41667,0.625 0.41667,0.41667 0.20833,1.45834 -0.625,0.41666 -0.625,1.04166 -0.625,1.04166 -0.625,0.625 0.20834,1.04167 0.20834,1.04167 2.70833,0.41667 6.875,0.41667 9.58333,0 0,0 0.625,-0.41667 0,-1.04167 0,0 0.20833,-0.625 -0.41667,-1.04166 -0.20833,-1.04167 -0.20833,-0.83334 0.20834,-1.45834 0.41666,-0.83333 1.04166,-0.83333 1.04166,-1.66666 m -11.25,0 c 3.54167,-0.625 8.75,-0.625 11.25,0 l 0.83334,-5 -2.91667,4.58333 v -5.83333 l -2.29167,5.625 -1.25,-6.25 -1.25,6.25 -2.29166,-5.83334 v 6.04167 l -2.91667,-4.58333 z m 10,-7.08334 c 0,1.11111 -1.66666,1.11111 -1.66666,0 0,-1.11111 1.66666,-1.11111 1.66666,0 z m -7.08333,-0.20833 c 0,1.11111 -1.66667,1.11111 -1.66667,0 0,-1.11111 1.66667,-1.11111 1.66667,0 z m 10.41667,1.45833 c 0,1.11111 -1.66667,1.11111 -1.66667,0 0,-1.11111 1.66667,-1.11111 1.66667,0 z m -6.875,-1.875 c 0,1.11111 -1.66667,1.11111 -1.66667,0 0,-1.11111 1.66667,-1.11111 1.66667,0 z m -6.875,1.875 c 0,1.11111 -1.66667,1.11111 -1.66667,0 0,-1.11111 1.66667,-1.11111 1.66667,0 z"
       style="fill:none;fill-opacity:1;fill-rule:evenodd;stroke:#000080;stroke-width:0.629921;stroke-linecap:round;stroke-linejoin:round;stroke-miterlimit:4;stroke-dasharray:none;stroke-opacity:1"
       id="path34-6" />
    <text
       xml:space="preserve"
       style="font-style:normal;font-weight:normal;font-size:6.66667px;line-height:1.25;font-family:sans-serif;fill:#000000;fill-opacity:1;stroke:none;stroke-width:0.629921;stroke-miterlimit:4;stroke-dasharray:none"
       x="64"
       y="41"
       id="text1025"><tspan
         id="tspan1023"
         x="64"
         y="41"
         style="stroke-width:0.629921;stroke-miterlimit:4;stroke-dasharray:none" /></text>
    <path
       style="fill:none;fill-opacity:1;fill-rule:nonzero;stroke:#00ff00;stroke-width:0.629921;stroke-miterlimit:4;stroke-dasharray:none"
       id="path11498"
       d="" />
    <path
       style="fill:none;fill-opacity:1;fill-rule:nonzero;stroke:#00ff00;stroke-width:0.629921;stroke-linecap:round;stroke-linejoin:miter;stroke-miterlimit:4;stroke-dasharray:none;stroke-dashoffset:0;stroke-opacity:1"
       id="path11521"
       d="" />
    <path
       style="fill:none;fill-opacity:1;fill-rule:nonzero;stroke:#00ff00;stroke-width:0.629921;stroke-miterlimit:4;stroke-dasharray:none"
       id="path11543"
       d="" />
    <rect
       y="8.0001125"
       x="296"
       height="32"
       width="32"
       id="rect926"
       style="fill:none;fill-opacity:1;stroke:#000080;stroke-width:0.629922;stop-color:#000000" />
    <rect
       y="8.0001125"
       x="328.00003"
       height="32"
       width="32"
       id="rect928"
       style="fill:none;fill-opacity:1;stroke:#000080;stroke-width:0.629922;stop-color:#000000" />
    <rect
       y="8.0001125"
       x="359.99994"
       height="32"
       width="32"
       id="rect930"
       style="fill:none;fill-opacity:1;stroke:#000080;stroke-width:0.629922;stop-color:#000000" />
    <rect
       y="8.0001125"
       x="391.99997"
       height="32"
       width="32"
       id="rect932"
       style="fill:none;fill-opacity:1;stroke:#000080;stroke-width:0.629922;stop-color:#000000" />
    <rect
       style="fill:none;fill-opacity:1;stroke:#000080;stroke-width:0.629922;stop-color:#000000"
       id="rect926-6"
       width="32"
       height="32"
       x="296"
       y="40.000111" />
    <rect
       style="fill:none;fill-opacity:1;stroke:#000080;stroke-width:0.629922;stop-color:#000000"
       id="rect928-8"
       width="32"
       height="32"
       x="328.00003"
       y="40.000111" />
    <rect
       style="fill:none;fill-opacity:1;stroke:#000080;stroke-width:0.629922;stop-color:#000000"
       id="rect930-0"
       width="32"
       height="32"
       x="359.99994"
       y="40.000111" />
    <rect
       style="fill:none;fill-opacity:1;stroke:#000080;stroke-width:0.629922;stop-color:#000000"
       id="rect932-4"
       width="32"
       height="32"
       x="391.99997"
       y="40.000111" />
    <rect
       style="fill:none;fill-opacity:1;stroke:#000080;stroke-width:0.629922;stop-color:#000000"
       id="rect926-5"
       width="32"
       height="32"
       x="296"
       y="72.000114" />
    <rect
       style="fill:none;fill-opacity:1;stroke:#000080;stroke-width:0.629922;stop-color:#000000"
       id="rect928-6"
       width="32"
       height="32"
       x="328.00003"
       y="72.000114" />
    <rect
       style="fill:none;fill-opacity:1;stroke:#000080;stroke-width:0.629922;stop-color:#000000"
       id="rect930-5"
       width="32"
       height="32"
       x="359.99994"
       y="72.000114" />
    <rect
       style="fill:none;fill-opacity:1;stroke:#000080;stroke-width:0.629922;stop-color:#000000"
       id="rect932-6"
       width="32"
       height="32"
       x="391.99997"
       y="72.000114" />
    <rect
       style="fill:none;fill-opacity:1;stroke:#000080;stroke-width:0.629922;stop-color:#000000"
       id="rect926-3"
       width="32"
       height="32"
       x="296"
       y="104.00011" />
    <rect
       style="fill:none;fill-opacity:1;stroke:#000080;stroke-width:0.629922;stop-color:#000000"
       id="rect928-84"
       width="32"
       height="32"
       x="328.00003"
       y="104.00011" />
    <rect
       style="fill:none;fill-opacity:1;stroke:#000080;stroke-width:0.629922;stop-color:#000000"
       id="rect930-8"
       width="32"
       height="32"
       x="359.99994"
       y="104.00011" />
    <rect
       style="fill:none;fill-opacity:1;stroke:#000080;stroke-width:0.629922;stop-color:#000000"
       id="rect932-5"
       width="32"
       height="32"
       x="391.99997"
       y="104.00011" />
    <path
       id="path72-89-9"
       style="fill:none;fill-opacity:1;fill-rule:evenodd;stroke:#000080;stroke-width:0.629921;stroke-linecap:round;stroke-linejoin:miter;stroke-miterlimit:4;stroke-dasharray:none;stroke-opacity:1"
       d="m 19.208338,115.8333 h 9.58333 m -1.25,6.45833 0.625,1.04167 h -8.33333 l 0.625,-1.04167 m 7.08333,-5.20833 v 5.20833 h -7.08333 v -5.20833 m 8.33333,-1.25 -1.25,1.25 h -7.08333 l -1.25,-1.25 m 0,0 v -2.08333 h 1.66667 v 0.83333 h 2.08333 v -0.83333 h 2.08333 v 0.83333 h 2.08334 v -0.83333 h 1.66666 v 2.08333 m -9.16666,9.16668 v -1.66668 h 8.75 v 1.66668 z m -1.25,1.25001 h 11.25 v -1.25001 h -11.25 z" />
    <rect
       style="fill:none;fill-opacity:1;stroke:#000080;stroke-width:0.629921;stroke-miterlimit:4;stroke-dasharray:none;stop-color:#000000"
       id="rect926-8"
       width="32"
       height="32"
       x="8.0000076"
       y="8.0000114" />
    <rect
       style="fill:none;fill-opacity:1;stroke:#000080;stroke-width:0.629921;stroke-miterlimit:4;stroke-dasharray:none;stop-color:#000000"
       id="rect928-2"
       width="32"
       height="32"
       x="40.000031"
       y="8.0000114" />
    <rect
       style="fill:none;fill-opacity:1;stroke:#000080;stroke-width:0.629921;stroke-miterlimit:4;stroke-dasharray:none;stop-color:#000000"
       id="rect930-1"
       width="32"
       height="32"
       x="71.999939"
       y="8.0000114" />
    <rect
       style="fill:none;fill-opacity:1;stroke:#000080;stroke-width:0.629921;stroke-miterlimit:4;stroke-dasharray:none;stop-color:#000000"
       id="rect932-9"
       width="32"
       height="32"
       x="103.99998"
       y="8.0000114" />
    <rect
       y="40.000031"
       x="8.0000076"
       height="32"
       width="32"
       id="rect926-6-72"
       style="fill:none;fill-opacity:1;stroke:#000080;stroke-width:0.629921;stroke-miterlimit:4;stroke-dasharray:none;stop-color:#000000" />
    <rect
       y="40.000031"
       x="40.000031"
       height="32"
       width="32"
       id="rect928-8-17"
       style="fill:none;fill-opacity:1;stroke:#000080;stroke-width:0.629921;stroke-miterlimit:4;stroke-dasharray:none;stop-color:#000000" />
    <rect
       y="40.000031"
       x="71.999939"
       height="32"
       width="32"
       id="rect930-0-0"
       style="fill:none;fill-opacity:1;stroke:#000080;stroke-width:0.629921;stroke-miterlimit:4;stroke-dasharray:none;stop-color:#000000" />
    <rect
       y="40.000031"
       x="103.99998"
       height="32"
       width="32"
       id="rect932-4-9"
       style="fill:none;fill-opacity:1;stroke:#000080;stroke-width:0.629921;stroke-miterlimit:4;stroke-dasharray:none;stop-color:#000000" />
    <rect
       y="71.999947"
       x="8.0000076"
       height="32"
       width="32"
       id="rect926-5-1"
       style="fill:none;fill-opacity:1;stroke:#000080;stroke-width:0.629921;stroke-miterlimit:4;stroke-dasharray:none;stop-color:#000000" />
    <rect
       y="71.999947"
       x="40.000031"
       height="32"
       width="32"
       id="rect928-6-2"
       style="fill:none;fill-opacity:1;stroke:#000080;stroke-width:0.629921;stroke-miterlimit:4;stroke-dasharray:none;stop-color:#000000" />
    <rect
       y="71.999947"
       x="71.999939"
       height="32"
       width="32"
       id="rect930-5-16"
       style="fill:none;fill-opacity:1;stroke:#000080;stroke-width:0.629921;stroke-miterlimit:4;stroke-dasharray:none;stop-color:#000000" />
    <rect
       y="71.999947"
       x="103.99998"
       height="32"
       width="32"
       id="rect932-6-9"
       style="fill:none;fill-opacity:1;stroke:#000080;stroke-width:0.629921;stroke-miterlimit:4;stroke-dasharray:none;stop-color:#000000" />
    <rect
       y="103.99998"
       x="8.0000076"
       height="32"
       width="32"
       id="rect926-3-0"
       style="fill:none;fill-opacity:1;stroke:#000080;stroke-width:0.629921;stroke-miterlimit:4;stroke-dasharray:none;stop-color:#000000" />
    <rect
       y="103.99998"
       x="40.000031"
       height="32"
       width="32"
       id="rect928-84-7"
       style="fill:none;fill-opacity:1;stroke:#000080;stroke-width:0.629921;stroke-miterlimit:4;stroke-dasharray:none;stop-color:#000000" />
    <rect
       y="103.99998"
       x="71.999939"
       height="32"
       width="32"
       id="rect930-8-1"
       style="fill:none;fill-opacity:1;stroke:#000080;stroke-width:0.629921;stroke-miterlimit:4;stroke-dasharray:none;stop-color:#000000" />
    <rect
       y="103.99998"
       x="103.99998"
       height="32"
       width="32"
       id="rect932-5-3"
       style="opacity:1;fill:none;fill-opacity:1;stroke:#000080;stroke-width:0.629921;stroke-miterlimit:4;stroke-dasharray:none;stop-color:#000000" />
    <path
       id="path46-30-16"
       style="fill:none;fill-opacity:1;fill-rule:evenodd;stroke:#000080;stroke-width:0.629922;stroke-linecap:round;stroke-linejoin:miter;stroke-miterlimit:4;stroke-dasharray:none;stroke-opacity:1"
       d="m 165.90696,121.60073 h 4.16666 m -5.20833,1.66666 h 6.25 m -3.125,-6.04166 v 2.08333 m -1.04167,-1.04167 h 2.08334 m 0,-4.16666 a 1.04167,1.04167 0 1 1 -2.08334,0 1.04167,1.04167 0 1 1 2.08334,0 z m -4.16667,10 c 1.04167,1.04167 5.20833,1.04167 6.25,0 0.20833,-0.625 0,-0.83334 0,-0.83334 0,-1.04166 -1.04167,-1.66666 -1.04167,-1.66666 2.29167,-0.625 2.5,-4.79167 -2.08333,-6.45834 -4.58333,1.66667 -4.375,5.83334 -2.08333,6.45834 0,0 -1.04167,0.625 -1.04167,1.66666 0,0 -0.20833,0.20834 0,0.83334 z m -2.5,1.66668 c 1.4125,-0.40417 4.2125,0.17917 5.625,-0.83334 1.4125,1.01251 4.2125,0.42917 5.625,0.83334 0,0 0.6875,0.225 1.25,0.83334 -0.28333,0.40418 -0.6875,0.41251 -1.25,0.20833 -1.4125,-0.40416 -4.2125,0.19168 -5.625,-0.41667 -1.4125,0.60835 -4.2125,0.0125 -5.625,0.41667 -0.56417,0.20418 -0.96792,0.19585 -1.25,-0.20833 0.56417,-0.80834 1.25,-0.83334 1.25,-0.83334 z" />
    <rect
       style="fill:none;fill-opacity:1;stroke:#000080;stroke-width:0.629922;stop-color:#000000"
       id="rect926-46"
       width="32"
       height="32"
       x="152.00012"
       y="8.0000114" />
    <rect
       style="fill:none;fill-opacity:1;stroke:#000080;stroke-width:0.629922;stop-color:#000000"
       id="rect928-88"
       width="32"
       height="32"
       x="184.00012"
       y="8.0000114" />
    <rect
       style="fill:none;fill-opacity:1;stroke:#000080;stroke-width:0.629922;stop-color:#000000"
       id="rect930-3"
       width="32"
       height="32"
       x="216.00012"
       y="8.0000114" />
    <rect
       style="fill:none;fill-opacity:1;stroke:#000080;stroke-width:0.629922;stop-color:#000000"
       id="rect932-7"
       width="32"
       height="32"
       x="248.00012"
       y="8.0000114" />
    <rect
       y="40.000031"
       x="152.00012"
       height="32"
       width="32"
       id="rect926-6-9"
       style="fill:none;fill-opacity:1;stroke:#000080;stroke-width:0.629922;stop-color:#000000" />
    <rect
       y="40.000031"
       x="184.00012"
       height="32"
       width="32"
       id="rect928-8-13"
       style="fill:none;fill-opacity:1;stroke:#000080;stroke-width:0.629922;stop-color:#000000" />
    <rect
       y="40.000031"
       x="216.00012"
       height="32"
       width="32"
       id="rect930-0-6"
       style="fill:none;fill-opacity:1;stroke:#000080;stroke-width:0.629922;stop-color:#000000" />
    <rect
       y="40.000031"
       x="248.00012"
       height="32"
       width="32"
       id="rect932-4-80"
       style="fill:none;fill-opacity:1;stroke:#000080;stroke-width:0.629922;stop-color:#000000" />
    <rect
       y="71.999947"
       x="152.00012"
       height="32"
       width="32"
       id="rect926-5-41"
       style="fill:none;fill-opacity:1;stroke:#000080;stroke-width:0.629922;stop-color:#000000" />
    <rect
       y="71.999947"
       x="184.00012"
       height="32"
       width="32"
       id="rect928-6-65"
       style="fill:none;fill-opacity:1;stroke:#000080;stroke-width:0.629922;stop-color:#000000" />
    <rect
       y="71.999947"
       x="216.00012"
       height="32"
       width="32"
       id="rect930-5-7"
       style="fill:none;fill-opacity:1;stroke:#000080;stroke-width:0.629922;stop-color:#000000" />
    <rect
       y="71.999947"
       x="248.00012"
       height="32"
       width="32"
       id="rect932-6-8"
       style="fill:none;fill-opacity:1;stroke:#000080;stroke-width:0.629922;stop-color:#000000" />
    <rect
       y="103.99998"
       x="152.00012"
       height="32"
       width="32"
       id="rect926-3-4"
       style="fill:none;fill-opacity:1;stroke:#000080;stroke-width:0.629922;stop-color:#000000" />
    <rect
       y="103.99998"
       x="184.00012"
       height="32"
       width="32"
       id="rect928-84-1"
       style="fill:none;fill-opacity:1;stroke:#000080;stroke-width:0.629922;stop-color:#000000" />
    <rect
       y="103.99998"
       x="216.00012"
       height="32"
       width="32"
       id="rect930-8-0"
       style="fill:none;fill-opacity:1;stroke:#000080;stroke-width:0.629922;stop-color:#000000" />
    <rect
       y="103.99998"
       x="248.00012"
       height="32"
       width="32"
       id="rect932-5-7"
       style="fill:none;fill-opacity:1;stroke:#000080;stroke-width:0.629922;stop-color:#000000" />
    <path
       id="path1158"
       d="m 24,112 1e-6,-56.999999 V 24 H 85"
       style="fill:none;fill-opacity:1;stroke:#000080;stroke-width:0.629921;stroke-linecap:butt;stroke-linejoin:miter;stroke-miterlimit:4;stroke-dasharray:none;stroke-opacity:1" />
    <path
       id="path1160"
       d="m 80.000002,16 16,16.000001 v 0"
       style="fill:none;fill-opacity:1;stroke:#000080;stroke-width:0.629921;stroke-linecap:butt;stroke-linejoin:miter;stroke-miterlimit:4;stroke-dasharray:none;stroke-opacity:1" />
    <path
       id="path1162"
       d="M 80.000002,32.000001 96.000002,16"
       style="fill:none;fill-opacity:1;stroke:#000080;stroke-width:0.629921;stroke-linecap:butt;stroke-linejoin:miter;stroke-miterlimit:4;stroke-dasharray:none;stroke-opacity:1" />
    <path
       style="fill:none;fill-opacity:1;stroke:#000080;stroke-width:0.629922;stroke-linecap:butt;stroke-linejoin:miter;stroke-miterlimit:4;stroke-dasharray:none;stroke-opacity:1"
       d="m 192,15.999999 16,16.000002 v 0"
       id="path1160-8" />
    <path
       style="fill:none;fill-opacity:1;stroke:#000080;stroke-width:0.629922;stroke-linecap:butt;stroke-linejoin:miter;stroke-miterlimit:4;stroke-dasharray:none;stroke-opacity:1"
       d="M 192,32.000001 208,15.999999"
       id="path1162-7" />
    <path
       id="path1182"
       d="M 176,112 232,56.000001 210,34"
       style="fill:none;stroke:#000080;stroke-width:0.629921;stroke-linecap:butt;stroke-linejoin:miter;stroke-miterlimit:4;stroke-dasharray:none;stroke-opacity:1" />
    <path
       style="fill:none;stroke:#000080;stroke-width:0.629922;stroke-linecap:butt;stroke-linejoin:miter;stroke-miterlimit:4;stroke-dasharray:none;stroke-opacity:1"
       d="m 320,111.99999 55.99999,-56 10e-6,-29"
       id="path1182-0" />
    <path
       style="fill:none;fill-opacity:1;stroke:#000080;stroke-width:0.629921;stroke-linecap:butt;stroke-linejoin:miter;stroke-miterlimit:4;stroke-dasharray:none;stroke-opacity:1"
       d="m 368,15.99999 16,16 v 0"
       id="path1160-3" />
    <path
       style="fill:none;fill-opacity:1;stroke:#000080;stroke-width:0.629921;stroke-linecap:butt;stroke-linejoin:miter;stroke-miterlimit:4;stroke-dasharray:none;stroke-opacity:1"
       d="m 368,31.99999 16,-16"
       id="path1162-3" />
    <path
       id="path1221"
       d="m 376,55.99999 -22,-22"
       style="opacity:1;fill:none;fill-opacity:1;stroke:#000080;stroke-width:0.629922;stroke-miterlimit:4;stroke-dasharray:none;stop-color:#000000" />
    <path
       id="path1225"
       d="M 376,55.99999 H 347"
       style="opacity:1;fill:none;fill-opacity:1;stroke:#000080;stroke-width:0.629922;stroke-miterlimit:4;stroke-dasharray:none;stop-color:#000000" />
    <path
       id="path1227"
       d="M 312,112 V 55.99999 h 29"
       style="opacity:1;fill:none;fill-opacity:1;stroke:#000080;stroke-width:0.629922;stroke-miterlimit:4;stroke-dasharray:none;stop-color:#000000" />
    <path
       id="path1160-3-6"
       d="m 336,16 16,16 v 0"
       style="fill:none;fill-opacity:1;stroke:#000080;stroke-width:0.629921;stroke-linecap:butt;stroke-linejoin:miter;stroke-miterlimit:4;stroke-dasharray:none;stroke-opacity:1" />
    <path
       id="path1162-3-3"
       d="M 336,32 352,16"
       style="fill:none;fill-opacity:1;stroke:#000080;stroke-width:0.629921;stroke-linecap:butt;stroke-linejoin:miter;stroke-miterlimit:4;stroke-dasharray:none;stroke-opacity:1" />
    <path
       id="path1160-3-3"
       d="m 336,48 16,16 v 0"
       style="fill:none;fill-opacity:1;stroke:#000080;stroke-width:0.629922;stroke-linecap:butt;stroke-linejoin:miter;stroke-miterlimit:4;stroke-dasharray:none;stroke-opacity:1" />
    <path
       id="path1162-3-1"
       d="M 336,64 352,48"
       style="fill:none;fill-opacity:1;stroke:#000080;stroke-width:0.629922;stroke-linecap:butt;stroke-linejoin:miter;stroke-miterlimit:4;stroke-dasharray:none;stroke-opacity:1" />
  </g>
</svg>
